<?xml version="1.0" encoding="utf-8"?>
<!-- Generator: Adobe Illustrator 25.1.0, SVG Export Plug-In . SVG Version: 6.00 Build 0)  -->
<svg version="1.1" id="Layer_1" xmlns="http://www.w3.org/2000/svg" xmlns:xlink="http://www.w3.org/1999/xlink" x="0px" y="0px"
	 viewBox="0 0 512 512" style="enable-background:new 0 0 512 512;" xml:space="preserve">
<style type="text/css">
	.st0{fill:#0B1941;}
</style>
<g>
	<path id="_149931032_1_" class="st0" d="M256,21.7C126.6,21.7,21.7,126.6,21.7,256c0,25.9,4.2,50.7,11.9,74h70.1V132.9L256,285.2
		l152.3-152.3V330h70.1c7.7-23.3,11.9-48.2,11.9-74C490.3,126.6,385.4,21.7,256,21.7L256,21.7z"/>
	<path id="_149931160_1_" class="st0" d="M221,320.2l-66.5-66.5v124.1h-25.4h-25.4H55.8C96.9,445.3,171.2,490.3,256,490.3
		s159.1-45.1,200.2-112.6h-47.9h-45.5h-5.4V253.7L291,320.2l-35,35L221,320.2L221,320.2z"/>
</g>
</svg>
